<?xml version="1.0" standalone="no"?>
<!DOCTYPE svg PUBLIC "-//W3C//DTD SVG 20010904//EN"
 "http://www.w3.org/TR/2001/REC-SVG-20010904/DTD/svg10.dtd">
<svg version="1.0" xmlns="http://www.w3.org/2000/svg"
 width="360.000000px" height="360.000000px" viewBox="0 0 360.000000 360.000000"
 preserveAspectRatio="xMidYMid meet">

<g transform="translate(0.000000,360.000000) scale(0.100000,-0.100000)"
fill="#000000" stroke="none">
<path d="M1780 3383 c-493 -36 -934 -320 -1167 -753 -349 -647 -134 -1457 492
-1863 151 -97 338 -170 520 -203 130 -23 356 -23 481 -1 549 99 992 508 1134
1047 69 262 61 527 -22 790 -21 69 -125 291 -152 325 -8 11 -42 56 -75 101
-192 260 -527 469 -851 533 -66 13 -252 32 -289 29 -14 -1 -46 -3 -71 -5z
m802 -664 c49 -35 50 -99 1 -117 -41 -14 -68 1 -108 56 -22 32 -45 52 -61 55
-42 8 -94 -14 -123 -52 l-26 -34 0 -513 0 -512 24 -26 c14 -15 38 -30 55 -34
16 -4 31 -13 34 -20 3 -9 -44 -12 -192 -12 -108 0 -196 4 -196 8 0 5 17 14 38
20 21 7 49 23 63 38 l24 26 5 476 c6 536 3 519 83 587 89 77 304 107 379 54z
m-1194 -259 c-2 -154 0 -280 3 -280 3 0 16 11 29 25 34 36 120 65 193 65 138
0 262 -76 318 -194 41 -87 39 -97 -26 -125 -31 -13 -58 -28 -61 -32 -2 -5 20
3 51 16 31 14 61 25 67 25 19 0 3 -177 -22 -241 -29 -76 -97 -151 -165 -184
-101 -47 -235 -51 -352 -9 -61 22 -98 14 -118 -26 -9 -18 -23 -30 -35 -30 -20
0 -20 9 -20 538 0 295 -5 555 -10 577 -10 47 -59 95 -95 95 -29 0 -43 18 -20
26 19 8 187 31 233 33 l33 1 -3 -280z m1077 -321 c18 -2 8 -5 -25 -9 l-55 -8
64 1 c70 1 83 -9 74 -54 -4 -22 -12 -28 -41 -33 -40 -6 -74 10 -92 44 -6 11
-20 20 -30 20 -11 0 -20 6 -20 14 0 17 47 37 75 31 11 -3 34 -6 50 -6z m-155
-29 c-8 -5 -19 -10 -25 -10 -5 0 -3 5 5 10 8 5 20 10 25 10 6 0 3 -5 -5 -10z
m-220 -85 c0 -2 -10 -10 -22 -16 -21 -11 -22 -11 -9 4 13 16 31 23 31 12z
m-957 -683 c-13 -8 -20 -106 -10 -137 6 -18 2 -21 -23 -23 -29 -2 -40 10 -20
23 6 3 10 33 10 65 0 46 -4 61 -17 69 -14 8 -8 10 27 11 25 0 40 -4 33 -8z
m108 -1 c-10 -6 -12 -28 -9 -84 l3 -76 -27 2 c-21 2 -26 6 -21 17 11 26 13
111 2 131 -9 17 -6 19 28 19 25 0 33 -3 24 -9z m179 2 c-25 -10 -39 -36 -40
-73 0 -72 60 -107 94 -55 24 36 20 82 -9 110 -22 22 -22 25 -5 25 27 0 60 -47
60 -85 0 -37 -46 -85 -81 -85 -28 0 -75 26 -83 45 -21 55 13 126 58 124 15 0
17 -2 6 -6z m360 -14 c0 -19 -1 -19 -16 -5 -8 9 -25 16 -36 16 -19 0 -20 -5
-16 -80 3 -75 2 -80 -17 -80 -19 0 -20 5 -17 80 4 71 2 80 -14 80 -9 0 -26 -7
-36 -17 -15 -14 -18 -14 -18 -1 0 25 10 28 92 28 72 0 78 -2 78 -21z m218 -3
c4 -18 3 -19 -13 -3 -9 9 -27 17 -41 17 -23 0 -24 -3 -24 -64 0 -36 5 -68 10
-71 19 -12 10 -25 -18 -25 l-28 0 4 70 c3 48 0 75 -9 86 -11 13 -5 15 52 12
54 -3 64 -6 67 -22z m164 12 c-7 -7 -12 -38 -12 -70 0 -44 4 -59 18 -67 16 -9
16 -10 0 -16 -9 -4 -25 -5 -34 -3 -15 3 -17 14 -15 77 2 53 -1 76 -11 82 -8 6
1 9 27 9 30 0 36 -3 27 -12z m298 -10 c-1 -21 -2 -22 -14 -5 -7 9 -25 17 -40
17 -25 0 -26 -1 -26 -65 0 -49 4 -67 15 -71 27 -11 16 -23 -18 -22 l-32 1 3
69 c3 45 0 73 -8 83 -11 13 -4 15 54 15 62 0 66 -1 66 -22z m199 -5 c0 -28 0
-28 -10 -5 -6 16 -15 22 -31 20 -35 -5 -32 -26 6 -49 45 -27 57 -63 28 -91
-16 -16 -27 -19 -56 -14 -34 7 -43 15 -30 29 4 3 13 -1 21 -9 21 -20 47 -14
51 13 2 15 -6 26 -27 39 -58 34 -49 94 14 94 32 0 35 -3 34 -27z m-699 -55 c0
-29 -1 -30 -14 -13 -10 14 -11 22 -2 31 15 18 16 18 16 -18z m460 0 c-1 -26
-3 -30 -10 -16 -6 9 -7 23 -4 32 9 25 14 19 14 -16z m-418 -80 c-6 -6 -15 -7
-21 -4 -7 4 -4 13 7 24 13 14 18 15 20 4 2 -8 -1 -19 -6 -24z m238 17 c0 -20
-5 -25 -27 -25 l-26 0 24 24 c31 30 29 30 29 1z m230 0 c0 -18 -5 -25 -20 -25
-25 0 -25 5 -2 29 22 25 22 25 22 -4z"/>
<path d="M1495 2217 c-27 -15 -49 -40 -70 -77 -29 -54 -30 -58 -33 -225 -5
-246 20 -340 102 -379 19 -9 56 -16 83 -16 123 0 233 147 233 310 0 34 5 70
10 81 7 13 7 19 0 19 -5 0 -10 8 -10 18 0 45 -45 156 -81 202 -69 87 -155 112
-234 67z m240 -243 c9 -14 20 -22 24 -19 5 3 11 -2 15 -10 3 -8 12 -15 21 -15
30 0 14 -27 -23 -38 -44 -13 -95 0 -124 32 -23 24 -22 28 2 58 24 31 62 27 85
-8z"/>
<path d="M1754 1919 c-3 -5 6 -9 20 -9 31 0 34 6 6 13 -11 3 -23 1 -26 -4z"/>
<path d="M2501 2104 c0 -11 3 -14 6 -6 3 7 2 16 -1 19 -3 4 -6 -2 -5 -13z"/>
</g>
</svg>
