<?xml version="1.0" standalone="no"?>
<!DOCTYPE svg PUBLIC "-//W3C//DTD SVG 20010904//EN"
 "http://www.w3.org/TR/2001/REC-SVG-20010904/DTD/svg10.dtd">
<svg version="1.0" xmlns="http://www.w3.org/2000/svg"
 width="900px" height="764px" viewBox="0 0 900.000000 764.000000"
 preserveAspectRatio="xMidYMid meet">
<metadata>
Created by potrace 1.16, written by Peter Selinger 2001-2019
</metadata>
<g transform="translate(0.000000,764.000000) scale(0.100000,-0.100000)"
fill="#000000" stroke="none">
<path d="M3430 7634 c-8 -1 -54 -6 -103 -9 -48 -4 -85 -10 -82 -14 2 -5 -12
-7 -32 -5 -20 1 -57 -2 -82 -7 -26 -6 -55 -11 -66 -11 -83 -1 -410 -82 -400
-99 4 -5 1 -9 -4 -9 -6 0 -11 5 -11 11 0 11 -41 2 -50 -11 -3 -4 -21 -11 -40
-15 -77 -16 -386 -149 -416 -180 -8 -7 -27 -16 -43 -20 -15 -3 -37 -14 -47
-24 -11 -9 -26 -20 -36 -23 -35 -14 -118 -80 -111 -90 3 -7 1 -8 -5 -4 -15 9
-54 -12 -46 -25 3 -6 0 -9 -7 -8 -8 1 -23 -2 -33 -6 -19 -8 -19 -9 0 -16 18
-7 18 -8 -2 -8 -26 -1 -76 -39 -69 -52 4 -5 0 -7 -7 -4 -7 3 -20 0 -28 -5 -12
-8 -13 -11 -1 -19 8 -5 9 -11 3 -15 -6 -3 -12 -1 -14 6 -5 14 -94 -70 -90 -85
2 -5 -4 -7 -12 -4 -10 4 -20 -2 -26 -13 -8 -16 -8 -20 4 -20 8 0 17 5 19 10 3
6 4 5 3 -2 -2 -7 -12 -13 -24 -13 -25 -1 -68 -40 -125 -115 -23 -30 -54 -70
-69 -87 -17 -21 -25 -39 -21 -50 4 -10 2 -14 -4 -10 -16 10 -44 -27 -37 -49 4
-14 3 -15 -4 -5 -12 16 -12 15 -72 -97 -12 -23 -26 -45 -32 -48 -5 -3 -13 -16
-18 -27 -5 -12 -25 -60 -44 -107 -20 -46 -36 -94 -36 -106 0 -12 -6 -27 -13
-33 -8 -6 -20 -37 -27 -68 -7 -32 -19 -69 -25 -83 -7 -14 -18 -56 -24 -95 -7
-38 -15 -77 -18 -85 -3 -8 -7 -26 -9 -40 -2 -14 -8 -56 -14 -95 -6 -38 -14
-104 -16 -146 l-5 -76 171 -7 c165 -6 217 -2 174 15 -16 6 -16 8 -2 8 18 1 19
8 35 156 9 89 9 87 16 105 3 8 17 56 32 105 15 50 36 105 47 123 11 17 17 32
13 32 -4 0 5 20 19 45 14 25 22 53 19 61 -3 8 -1 14 6 12 6 -2 21 15 34 37 12
22 26 43 30 46 4 3 9 15 10 27 0 12 3 19 5 17 5 -4 42 39 42 48 0 8 70 110 97
140 13 16 22 31 19 34 -3 4 -14 -4 -25 -16 l-19 -22 2 24 c1 17 7 23 26 24 45
1 50 3 50 17 0 8 21 36 46 63 114 119 174 179 241 241 51 47 69 69 60 75 -7 5
-4 6 9 2 16 -4 30 2 50 22 16 16 50 42 76 58 26 16 44 33 42 37 -3 4 2 8 10 8
9 0 25 8 35 18 37 32 50 42 61 42 5 0 10 4 10 9 0 5 8 11 18 15 9 3 31 14 47
25 17 10 64 36 105 57 41 22 77 42 78 47 2 4 8 7 13 7 4 0 44 18 89 39 44 22
97 45 117 51 21 7 43 16 48 20 6 4 33 14 62 22 46 14 52 14 58 0 3 -8 1 -20
-5 -26 -8 -8 -9 -5 -4 9 6 16 5 18 -7 9 -8 -6 -65 -48 -126 -93 -62 -46 -113
-86 -113 -88 0 -2 6 -1 13 3 8 5 8 2 -2 -9 -7 -9 -21 -17 -30 -17 -15 0 -40
-22 -209 -181 -35 -32 -68 -73 -74 -89 -8 -23 -15 -29 -28 -25 -18 6 -45 -25
-35 -39 3 -3 2 -4 -1 -1 -8 5 -75 -65 -124 -131 -21 -28 -45 -57 -52 -65 -27
-27 -98 -126 -98 -136 0 -9 -8 -21 -49 -69 -5 -6 -48 -89 -95 -185 -63 -125
-85 -181 -81 -197 3 -13 2 -21 -3 -18 -5 3 -17 -20 -26 -52 -9 -31 -23 -77
-31 -102 -8 -25 -16 -63 -19 -85 -2 -22 -9 -76 -15 -120 -6 -44 -10 -103 -9
-132 1 -43 5 -52 22 -57 26 -7 150 -8 168 -1 10 4 13 50 11 225 -1 148 2 218
8 214 6 -3 9 2 8 12 -1 11 1 35 6 54 5 19 9 37 10 40 1 3 5 21 9 40 4 19 16
60 27 91 11 31 18 63 16 70 -2 8 -2 11 0 7 3 -4 20 24 39 62 20 38 32 75 28
81 -4 7 -3 9 3 6 10 -6 53 44 53 61 0 5 12 22 28 38 15 16 50 59 77 95 48 63
152 163 205 198 14 9 34 24 44 33 11 10 26 18 33 18 7 0 13 4 13 8 0 5 12 15
28 23 15 8 33 20 41 27 7 7 26 16 42 19 15 3 30 11 32 17 3 7 38 25 78 41 41
16 76 33 77 37 2 5 9 8 15 8 20 0 97 32 92 39 -2 4 11 7 29 8 19 1 49 8 67 16
41 17 100 34 154 42 22 4 45 11 52 17 6 5 38 13 70 18 32 5 87 14 123 20 298
51 626 69 910 51 101 -7 192 -16 201 -21 9 -5 38 -11 65 -14 53 -6 120 -18
201 -35 29 -6 61 -8 70 -5 15 5 16 4 3 -6 -13 -9 -12 -10 5 -7 11 2 31 -2 45
-9 14 -6 50 -15 80 -19 30 -4 68 -14 85 -23 16 -8 49 -15 73 -14 23 0 40 -3
37 -8 -2 -4 21 -15 53 -24 79 -24 171 -56 209 -72 17 -8 40 -14 51 -14 12 0
24 -4 27 -10 3 -5 15 -10 26 -10 10 0 19 -4 19 -9 0 -5 15 -12 33 -15 78 -16
87 -19 87 -27 0 -5 5 -9 12 -9 6 0 34 -11 62 -24 28 -13 92 -40 141 -60 142
-58 692 -327 705 -345 3 -3 17 -12 32 -18 15 -7 46 -24 70 -39 24 -15 71 -42
106 -61 92 -49 105 -56 127 -74 11 -9 31 -20 45 -24 14 -4 36 -17 50 -27 49
-39 134 -90 151 -91 10 -1 17 -5 16 -10 -1 -5 12 -16 28 -25 26 -15 121 -76
180 -115 78 -54 141 -91 148 -89 4 1 7 -2 7 -7 0 -15 33 -22 42 -9 6 9 7 6 3
-9 -4 -16 -1 -23 15 -28 11 -3 20 -11 20 -16 0 -5 5 -9 11 -9 6 0 41 -21 78
-48 134 -96 133 -96 143 -81 7 10 8 9 4 -6 -5 -17 9 -30 77 -75 85 -56 167
-118 179 -135 5 -6 12 -5 19 2 10 10 2 23 -39 64 -46 46 -54 50 -70 38 -15
-12 -16 -12 -5 2 10 13 2 25 -51 78 -43 43 -65 59 -69 50 -3 -8 -6 -3 -6 10
-1 17 -5 21 -17 17 -8 -3 -13 -2 -10 2 3 5 -15 29 -41 53 -28 27 -41 35 -34
22 7 -13 8 -23 2 -23 -5 0 -11 11 -15 23 -5 21 -35 51 -205 203 -78 69 -130
106 -141 99 -5 -3 -10 2 -11 12 -1 25 -198 179 -224 175 -14 -1 -16 1 -7 6 9
6 -2 20 -40 50 -97 76 -203 150 -208 146 -2 -3 2 -9 10 -14 8 -5 12 -12 8 -15
-3 -4 -15 2 -27 14 -11 11 -16 21 -11 23 12 4 -69 71 -86 71 -7 0 -11 4 -8 8
7 12 -43 42 -56 34 -6 -4 -9 -2 -8 3 4 15 -91 85 -107 78 -8 -3 -12 0 -10 7 4
11 -16 27 -145 109 -146 93 -175 111 -185 112 -5 1 -32 16 -60 34 -27 17 -56
32 -62 32 -7 0 -13 3 -13 8 0 4 -28 21 -63 37 -34 17 -65 34 -68 39 -4 5 -11
6 -17 2 -6 -3 -12 -1 -14 4 -2 6 -13 12 -25 13 -12 0 -20 4 -18 7 6 10 -175
91 -186 84 -5 -3 -8 0 -7 6 4 14 -197 102 -234 103 -15 0 -25 4 -23 8 8 11
-56 33 -95 32 -25 -1 -29 1 -16 6 17 6 16 9 -10 18 -16 7 -47 17 -69 24 -22 7
-44 17 -49 21 -6 4 -25 8 -43 8 -18 0 -33 4 -33 9 0 7 -103 47 -144 56 -6 1
-18 5 -26 8 -27 10 -204 57 -240 63 -19 4 -39 10 -45 14 -18 13 -106 31 -117
24 -5 -4 -13 -2 -17 3 -3 5 -46 18 -96 27 -49 10 -97 20 -105 22 -8 2 -32 8
-53 13 -20 5 -53 8 -71 7 -19 -1 -32 1 -30 4 9 8 -137 29 -290 40 -83 6 -175
15 -205 21 -49 8 -445 11 -481 3z"/>
<path d="M3780 6953 c-307 -24 -607 -98 -832 -206 -294 -142 -544 -381 -690
-662 -91 -176 -128 -327 -128 -530 l0 -145 260 0 c241 0 260 1 260 18 0 9 21
78 46 152 44 132 125 307 178 385 35 51 156 177 224 233 56 46 182 117 272
152 83 33 312 89 430 106 58 8 150 21 205 29 237 34 778 9 1205 -56 157 -23
207 -32 235 -39 17 -5 50 -12 75 -15 183 -27 441 -89 805 -194 228 -65 659
-224 815 -299 90 -43 393 -226 598 -360 12 -8 22 -12 22 -9 0 3 -35 32 -77 63
-96 70 -104 77 -78 67 30 -12 116 -66 135 -84 9 -8 24 -18 33 -22 31 -12 501
-324 531 -352 6 -6 36 -28 66 -49 30 -22 66 -49 80 -61 14 -13 39 -30 55 -40
34 -20 27 -13 -74 70 -67 55 -262 202 -307 233 -11 6 -77 52 -149 101 -138 96
-343 218 -372 223 -10 2 -20 6 -23 9 -3 3 -25 18 -50 33 -25 15 -58 37 -74 49
-394 296 -498 363 -801 515 -279 141 -441 211 -725 316 -123 45 -456 154 -520
170 -14 4 -68 18 -120 32 -133 34 -351 83 -429 95 -421 65 -573 79 -831 77
-113 -1 -225 -3 -250 -5z m570 -200 c-528 -28 -821 -75 -1145 -184 -131 -44
-206 -79 -332 -151 -46 -26 -83 -45 -83 -43 0 18 256 153 360 190 368 130 728
191 1125 191 72 0 105 -1 75 -3z"/>
<path d="M5195 5312 c-2 -2 1 -14 6 -26 8 -17 4 -38 -19 -96 -17 -41 -42 -106
-57 -145 -14 -38 -33 -86 -41 -105 -27 -69 -326 -836 -354 -912 l-29 -78 185
0 185 0 38 83 c21 45 49 106 61 135 13 28 26 52 29 52 4 0 43 -53 89 -117 45
-65 88 -126 95 -135 11 -14 37 -17 165 -20 97 -2 152 1 152 7 0 6 -17 36 -38
67 -20 31 -68 106 -106 165 -38 59 -82 128 -98 152 -15 25 -28 48 -28 53 0 8
81 69 350 264 80 58 152 112 160 120 12 12 -10 14 -169 14 l-184 0 -51 -32
c-28 -18 -89 -59 -135 -91 -46 -32 -85 -56 -88 -53 -6 5 13 64 133 427 46 140
84 258 84 262 0 6 -329 15 -335 9z"/>
<path d="M1078 5257 l32 -33 -24 -70 c-43 -119 -195 -560 -272 -784 -40 -118
-87 -255 -103 -303 -17 -49 -31 -92 -31 -97 0 -4 157 -9 348 -10 274 -1 351 2
359 12 6 7 61 169 124 361 l113 347 238 0 c184 0 238 -3 238 -12 0 -7 -45
-148 -100 -313 -55 -165 -107 -321 -115 -348 l-14 -48 156 3 155 3 33 100
c231 697 396 1207 393 1209 -1 2 -70 5 -152 7 l-149 4 -67 -200 -66 -200 -237
-1 c-131 -1 -239 1 -241 5 -3 3 7 38 21 76 44 120 101 310 96 318 -2 4 -176 7
-386 7 l-381 0 32 -33z"/>
<path d="M2807 4749 c-103 -25 -156 -75 -215 -206 -63 -137 -142 -358 -142
-395 0 -63 21 -112 66 -155 l44 -43 373 0 c412 0 440 3 510 60 52 44 88 100
132 210 56 140 95 284 102 376 6 80 6 81 -23 101 -75 54 -104 57 -469 60 -187
1 -357 -2 -378 -8z m448 -149 c10 -11 20 -41 22 -67 4 -41 -4 -71 -52 -195
-59 -151 -96 -207 -139 -209 -88 -6 -131 15 -147 74 -10 36 -7 55 23 156 42
146 78 208 138 239 58 29 130 30 155 2z"/>
<path d="M4122 4745 c-71 -16 -133 -48 -174 -92 -41 -43 -219 -457 -241 -558
-10 -50 -9 -57 9 -82 39 -53 50 -55 423 -60 l346 -6 35 75 36 76 -206 4 c-113
3 -213 8 -223 13 -15 6 -18 16 -14 49 5 46 140 383 163 406 12 12 50 15 212
15 108 0 203 4 210 8 12 8 112 151 112 162 0 3 -141 5 -312 4 -226 0 -331 -4
-376 -14z"/>
<path d="M7349 4732 c-46 -118 -151 -449 -156 -490 -5 -44 -1 -60 23 -108 56
-111 99 -130 319 -139 115 -6 165 -11 162 -19 -3 -6 -31 -78 -63 -160 -82
-207 -123 -250 -214 -226 -50 13 -60 33 -60 115 l0 66 -177 -6 c-98 -4 -183
-8 -189 -10 -19 -6 -48 -118 -48 -190 -1 -82 20 -128 74 -160 33 -19 51 -20
340 -20 270 0 310 2 352 18 59 23 131 99 165 175 35 79 173 452 223 602 5 14
45 131 90 260 45 129 86 247 90 263 l9 27 -158 0 -158 0 -16 -47 c-16 -49 -66
-189 -132 -368 -20 -55 -43 -119 -52 -142 l-15 -43 -95 0 c-93 0 -95 1 -124
31 -48 51 -42 92 52 354 45 124 80 227 78 229 -2 2 -73 6 -157 9 l-153 6 -10
-27z"/>
<path d="M6255 4724 c-58 -20 -112 -68 -140 -125 -14 -26 -59 -128 -101 -226
-128 -301 -139 -351 -83 -397 l31 -26 467 0 467 0 29 59 c15 33 27 63 27 68
-1 4 -137 8 -301 8 -323 1 -331 2 -331 54 1 14 16 62 34 106 l32 80 306 5
c291 5 308 6 335 26 23 17 38 50 80 175 29 85 52 165 50 179 l-2 25 -430 2
c-352 1 -437 -1 -470 -13z m551 -161 c47 -18 27 -86 -35 -121 -35 -20 -54 -22
-191 -22 l-151 0 7 23 c17 56 49 109 73 123 21 12 51 13 155 9 70 -4 134 -9
142 -12z"/>
<path d="M1418 3771 l-87 -6 43 -75 c53 -93 61 -109 75 -140 6 -14 24 -45 40
-70 16 -25 30 -53 30 -62 1 -9 10 -20 21 -23 11 -3 20 -14 20 -22 0 -16 56
-123 70 -133 3 -3 21 -32 40 -65 18 -33 46 -79 62 -102 15 -23 28 -47 28 -53
0 -13 14 -31 53 -67 15 -15 27 -37 27 -49 0 -13 8 -25 18 -28 18 -6 62 -81 62
-105 0 -6 5 -11 10 -11 6 0 10 -7 10 -15 0 -9 5 -21 10 -28 6 -7 24 -27 40
-46 17 -19 30 -39 30 -44 0 -5 14 -26 30 -47 17 -21 30 -42 30 -46 1 -20 50
-64 64 -58 9 3 16 1 16 -5 0 -6 -4 -11 -10 -11 -5 0 0 -16 11 -35 12 -19 25
-35 30 -35 5 0 9 -5 9 -11 0 -6 10 -24 23 -39 12 -16 36 -48 52 -71 17 -23 49
-64 73 -91 23 -27 42 -53 42 -58 0 -6 12 -24 28 -40 15 -17 35 -40 44 -53 10
-12 32 -40 49 -62 17 -22 53 -63 80 -91 27 -29 49 -56 49 -60 1 -17 89 -106
99 -99 6 3 11 -2 11 -12 0 -20 184 -223 202 -223 4 0 10 -9 13 -20 3 -11 12
-20 18 -20 11 0 99 -81 115 -105 9 -14 97 -85 106 -85 3 0 27 -21 53 -47 25
-27 42 -41 37 -33 -4 8 5 3 21 -13 79 -73 111 -97 123 -92 7 2 10 0 7 -5 -3
-6 2 -10 11 -10 10 0 14 -3 10 -7 -7 -7 84 -69 97 -65 4 1 7 -2 7 -7 0 -9 60
-37 72 -33 5 1 7 -3 5 -9 -1 -6 18 -19 43 -29 25 -11 41 -19 36 -19 -10 -1 38
-41 49 -41 4 0 36 -14 72 -30 35 -17 69 -28 73 -25 5 3 18 -3 29 -14 28 -28
80 -53 93 -45 6 4 8 3 5 -3 -8 -12 20 -26 34 -17 5 3 8 0 7 -6 -3 -13 115 -75
295 -154 125 -54 172 -66 179 -46 2 6 8 6 18 0 13 -8 12 -10 -2 -10 -25 0 -23
-21 2 -27 11 -3 20 -9 20 -14 0 -5 8 -9 18 -9 9 0 67 -20 127 -44 109 -43 221
-80 280 -92 17 -3 39 -9 50 -14 11 -4 39 -13 63 -19 23 -6 60 -16 81 -22 22
-7 55 -9 73 -5 21 4 28 3 19 -3 -11 -7 -9 -10 8 -16 11 -3 29 -4 39 -1 46 14
72 14 72 1 0 -17 60 -24 238 -29 117 -3 169 1 277 19 17 3 55 10 85 15 174 30
407 120 559 217 30 19 99 80 154 136 103 105 220 271 337 477 29 52 66 116 82
143 51 87 59 161 28 281 -57 223 -266 518 -509 720 -267 221 -692 458 -1208
674 -838 352 -1008 417 -798 307 182 -97 260 -137 380 -200 133 -70 204 -112
172 -101 -144 47 -643 157 -821 181 -196 25 -381 15 -515 -30 -61 -20 -65 -18
-11 6 43 20 44 21 25 35 -11 8 -68 62 -126 120 l-106 104 -184 -2 -184 -3 85
-90 c47 -49 104 -107 128 -129 58 -54 57 -92 -1 -46 -14 11 -28 20 -33 20 -4
0 -26 15 -49 34 -28 24 -46 32 -55 26 -8 -5 -11 -12 -7 -17 5 -4 12 -2 16 6 7
10 9 10 14 -1 3 -9 -2 -14 -14 -15 -23 -2 -34 14 -21 30 12 14 -7 47 -27 47
-6 0 -11 5 -11 10 0 6 -9 10 -20 10 -11 0 -20 7 -20 15 0 8 -5 15 -11 15 -6 0
-28 18 -48 41 l-36 40 -80 -3 -80 -3 99 -80 c55 -44 123 -100 152 -125 74 -64
125 -100 141 -100 7 0 13 -4 13 -10 0 -5 32 -33 70 -61 39 -28 70 -53 70 -57
0 -17 -83 -262 -89 -262 -3 0 -17 10 -31 23 -14 12 -90 76 -170 143 -80 66
-203 170 -273 230 -185 157 -197 166 -197 161 0 -3 37 -52 83 -109 45 -56 211
-263 368 -458 447 -557 506 -640 455 -640 -36 0 -509 458 -723 700 -118 134
-303 357 -447 537 -49 62 -94 113 -100 115 -6 2 -64 1 -128 -2 l-117 -5 117
-175 c230 -343 440 -622 702 -929 255 -300 253 -297 230 -343 -39 -75 -85 -67
-211 37 -353 292 -778 717 -998 998 -65 84 -128 161 -140 171 -23 21 -28 40
-8 33 6 -2 24 0 40 4 15 4 27 4 27 -1 0 -5 -12 -10 -27 -12 l-28 -4 25 -11
c14 -7 21 -12 16 -12 -5 -1 11 -17 35 -35 24 -19 45 -34 47 -32 1 2 -24 56
-58 119 -33 64 -60 121 -60 127 0 6 -9 23 -21 39 -20 27 -23 28 -93 23 -77 -5
-99 5 -76 33 7 8 10 24 7 35 -3 11 -2 18 2 15 4 -2 18 24 30 59 19 54 20 67 9
92 -7 16 -15 31 -19 34 -3 3 -14 30 -24 60 -10 30 -21 60 -25 65 -4 6 -13 29
-20 51 l-12 41 -61 7 c-33 3 -72 5 -86 4 -14 -1 -65 -4 -113 -7z m5323 -2811
c1 -5 2 -15 3 -22 0 -6 7 -13 15 -16 10 -3 11 2 7 19 -7 23 -7 23 8 5 10 -13
12 -22 6 -26 -6 -4 -8 -14 -5 -22 4 -9 -3 -33 -14 -55 -17 -32 -20 -34 -21
-15 0 25 -25 26 -25 1 0 -8 -8 -23 -17 -33 -20 -22 -23 -36 -8 -36 6 0 5 -8
-2 -20 -7 -11 -21 -20 -30 -20 -10 0 -18 -4 -18 -10 0 -5 -4 -10 -10 -10 -5 0
-7 8 -4 18 5 13 4 14 -4 3 -6 -8 -8 -19 -6 -25 2 -6 -5 -17 -16 -24 -11 -7
-20 -8 -20 -3 0 5 8 12 17 15 15 6 15 8 3 16 -8 6 -10 10 -5 11 6 0 -1 4 -14
8 l-23 6 28 15 c16 8 41 27 55 42 15 15 29 24 32 22 2 -3 3 18 2 47 -2 34 0
47 6 38 7 -11 10 -9 15 9 4 12 11 22 16 22 6 0 8 11 6 25 -4 17 -1 25 8 25 8
0 15 -4 15 -10z"/>
<path d="M4431 3708 c-22 -41 -37 -66 -50 -82 -12 -14 -11 -19 5 -31 10 -8 22
-15 27 -15 4 0 7 -7 7 -16 0 -8 -4 -13 -9 -9 -14 8 -20 -7 -11 -30 8 -19 8
-19 15 -1 12 29 68 84 95 94 13 5 38 6 55 2 17 -4 47 -5 66 -2 29 4 31 6 14
13 -17 7 -17 8 7 8 15 1 29 5 32 9 3 5 -23 5 -57 1 -34 -4 -63 -4 -65 1 -2 5
-9 7 -17 4 -18 -7 -31 16 -14 27 11 7 10 11 -6 24 -19 16 -19 16 8 10 15 -3
27 -1 27 5 0 6 -25 10 -58 10 -51 0 -60 -3 -71 -22z"/>
<path d="M6532 3705 c-12 -14 -22 -35 -22 -48 0 -27 -15 -51 -26 -44 -8 4 -10
-24 -6 -75 1 -11 10 -18 21 -18 11 0 22 -6 25 -12 3 -7 3 -2 0 11 -4 14 -1 27
7 31 10 7 10 11 -1 24 -16 20 -6 33 14 17 12 -10 17 -8 25 7 9 16 24 21 88 25
96 6 116 10 119 26 1 6 1 8 -2 3 -2 -4 -22 -6 -44 -4 -23 2 -47 -1 -55 -8 -13
-10 -19 -9 -35 5 -19 17 -19 18 0 45 11 16 20 31 20 34 0 3 -24 6 -53 6 -45 0
-57 -4 -75 -25z"/>
<path d="M2510 3659 c0 -4 18 -23 40 -42 22 -19 40 -41 40 -49 0 -8 -24 -24
-57 -38 -82 -33 -92 -42 -57 -52 33 -9 84 -1 84 13 0 5 7 9 15 9 8 0 15 4 15
8 0 4 16 9 36 10 27 2 40 -3 55 -21 16 -21 27 -24 84 -24 36 0 62 3 59 9 -3 5
-15 6 -27 3 -18 -5 -19 -4 -7 5 13 9 13 11 -1 20 -49 29 -63 51 -68 103 -1 4
-10 3 -22 -3 -17 -9 -23 -8 -35 7 -8 10 -13 13 -14 6 0 -7 -7 -13 -16 -13 -12
0 -15 6 -10 26 6 23 4 26 -13 21 -10 -2 -38 -1 -60 3 -23 4 -41 4 -41 -1z"/>
<path d="M5786 3654 c-3 -8 0 -13 7 -11 7 1 12 -9 12 -23 0 -18 -5 -25 -18
-25 -10 0 -25 -9 -33 -19 -8 -11 -14 -15 -14 -10 0 6 5 15 12 22 6 6 9 14 6
17 -7 7 -78 -99 -78 -116 0 -24 40 24 41 50 l2 26 4 -25 c6 -31 21 -50 40 -50
12 0 12 3 -1 16 -9 8 -16 17 -16 18 0 8 56 -8 63 -18 6 -7 7 -4 3 6 -3 11 2
19 13 23 15 4 81 95 81 111 0 2 -12 4 -28 4 -15 0 -41 4 -59 9 -24 7 -33 6
-37 -5z"/>
<path d="M3470 3650 c-10 -6 -11 -10 -2 -10 6 0 12 -9 12 -20 0 -13 7 -20 20
-20 15 0 21 -9 26 -40 4 -22 10 -40 15 -40 5 0 6 6 3 14 -9 24 34 96 59 97 77
4 72 7 75 -37 4 -52 -19 -73 -90 -84 -45 -6 -48 -8 -18 -10 32 -2 33 -3 10 -9
-17 -5 -6 -8 38 -9 43 -1 62 3 62 11 0 12 31 20 78 19 17 0 21 4 17 18 -3 10
-1 21 4 24 6 4 8 13 4 21 -3 8 0 15 6 15 6 0 11 11 11 24 0 13 6 26 13 29 6 2
-13 2 -43 0 -41 -3 -51 -2 -40 6 20 14 -239 15 -260 1z"/>
<path d="M3965 3650 c-21 -8 -60 -50 -47 -50 12 0 29 14 35 30 4 9 6 4 4 -10
-1 -18 5 -28 21 -35 21 -9 26 -22 23 -55 -2 -13 -1 -13 8 0 6 8 11 28 11 44 0
22 4 27 16 22 11 -4 18 1 21 14 3 11 13 21 22 21 9 1 28 3 43 4 16 2 29 -2 32
-11 7 -19 146 -20 146 -1 0 32 -24 37 -169 36 -81 0 -155 -4 -166 -9z"/>
<path d="M5307 3647 c-7 -6 -5 -6 7 -3 11 4 23 1 28 -6 15 -24 8 -34 -24 -33
-25 0 -34 -5 -37 -20 -5 -27 -25 -38 -32 -17 -5 14 -7 14 -17 -5 -13 -24 -6
-57 10 -47 5 3 16 -3 24 -15 21 -29 48 -26 73 7 46 59 79 117 71 122 -4 3 18
5 50 5 32 0 54 -3 49 -6 -6 -3 -3 -11 5 -19 12 -9 32 -10 73 -4 52 7 55 8 28
15 l-30 7 35 1 c22 1 31 4 24 11 -12 12 -321 18 -337 7z"/>
<path d="M6039 3650 c-1 -3 -1 -8 0 -12 0 -5 -5 -8 -11 -8 -9 0 -8 -4 2 -10
12 -8 10 -10 -10 -10 -20 0 -22 -2 -10 -10 10 -6 11 -10 3 -10 -7 0 -13 -10
-13 -22 0 -18 -2 -20 -9 -9 -8 12 -11 9 -16 -12 -4 -15 -11 -27 -15 -27 -4 0
-10 -9 -13 -20 -5 -20 -2 -21 56 -18 59 3 62 4 65 30 2 14 11 32 20 39 14 11
15 11 5 -1 -16 -18 -17 -38 -1 -22 15 15 17 102 3 103 -5 1 4 5 20 8 26 7 24
8 -23 12 -28 2 -53 2 -53 -1z"/>
<path d="M6227 3648 c4 -7 0 -9 -10 -5 -9 3 -19 2 -22 -2 -8 -15 23 -21 51
-11 39 15 104 13 104 -4 0 -15 -35 -27 -56 -19 -8 3 -11 9 -8 14 3 5 -3 9 -12
9 -14 0 -15 -3 -6 -12 21 -21 14 -63 -11 -77 -18 -9 -23 -19 -19 -37 4 -20 10
-24 43 -24 35 0 40 4 66 48 15 26 27 53 25 60 -2 7 3 11 10 10 20 -5 22 39 1
50 -27 13 -165 13 -156 0z"/>
<path d="M4840 3640 c0 -5 -9 -10 -20 -10 -19 0 -87 -86 -76 -97 3 -3 11 6 17
21 7 14 16 26 20 26 13 0 18 -27 7 -38 -11 -11 11 -42 31 -42 6 0 8 -6 5 -14
-3 -8 -13 -12 -22 -9 -13 4 -14 3 -3 -5 8 -6 11 -19 7 -33 -4 -19 -3 -18 6 4
7 15 18 27 26 27 7 0 11 4 8 9 -3 4 45 8 107 7 85 -1 111 2 110 12 -2 7 7 12
21 12 14 0 28 5 31 10 4 6 11 8 16 5 5 -3 6 1 3 10 -4 9 -2 15 4 13 6 -2 20
14 30 34 18 34 18 38 3 52 -11 10 -29 13 -58 9 -33 -4 -43 -10 -47 -29 -7 -26
-26 -33 -26 -9 0 8 -7 15 -16 15 -8 0 -13 4 -10 9 8 12 -9 17 -63 20 -32 2
-42 -1 -39 -11 3 -7 23 -14 49 -16 24 -2 48 -7 53 -12 12 -12 -23 -90 -41 -90
-7 0 -13 -8 -13 -17 0 -15 -2 -16 -10 -3 -5 8 -10 10 -10 4 0 -16 -51 -4 -57
14 -4 8 -1 23 5 33 14 22 15 32 4 25 -5 -3 -9 9 -10 26 0 17 -7 35 -14 39 -18
12 -28 11 -28 -1z"/>
</g>
</svg>
