<?xml version="1.0" standalone="no"?>
<!DOCTYPE svg PUBLIC "-//W3C//DTD SVG 20010904//EN"
 "http://www.w3.org/TR/2001/REC-SVG-20010904/DTD/svg10.dtd">
<svg version="1.0" xmlns="http://www.w3.org/2000/svg"
 width="325.000000px" height="155.000000px" viewBox="0 0 325.000000 155.000000"
 preserveAspectRatio="xMidYMid meet">
<metadata>
Created by potrace 1.16, written by Peter Selinger 2001-2019
</metadata>
<g transform="translate(0.000000,155.000000) scale(0.100000,-0.100000)"
fill="#000000" stroke="none">
<path d="M785 1109 c-51 -14 -87 -61 -93 -119 l-5 -50 97 -98 c56 -57 96 -106
96 -118 0 -11 -7 -30 -16 -42 -14 -20 -23 -22 -124 -22 -98 0 -110 -2 -120
-19 -25 -49 -19 -51 125 -51 178 0 226 20 244 102 13 60 -5 97 -89 178 -97 93
-106 110 -85 150 15 30 16 30 104 30 109 0 121 4 121 41 l0 29 -112 -1 c-62 0
-127 -5 -143 -10z"/>
<path d="M1146 1108 c-3 -7 -14 -53 -25 -103 -11 -49 -34 -146 -50 -215 -16
-69 -33 -142 -36 -162 l-7 -38 175 0 175 0 11 31 c6 18 11 34 11 35 0 2 -58 4
-130 4 -97 0 -130 3 -130 13 0 6 7 42 16 80 l17 67 117 0 118 0 11 31 c6 18
11 34 11 35 0 2 -54 4 -121 4 -121 0 -121 0 -116 23 3 12 11 48 18 80 l12 57
134 0 133 0 10 26 c6 14 10 30 10 35 0 15 -360 12 -364 -3z"/>
<path d="M1602 1068 c-14 -68 -101 -438 -108 -460 -5 -17 8 -18 171 -18 l176
0 14 33 13 32 -132 3 -133 3 48 217 c27 119 48 223 49 230 0 8 -15 12 -44 12
l-43 0 -11 -52z"/>
<path d="M2119 1106 c-132 -47 -210 -158 -212 -299 -2 -155 73 -217 265 -217
141 0 147 6 187 175 l22 90 -22 18 c-16 13 -40 17 -99 17 l-78 0 -11 -31 c-6
-18 -11 -34 -11 -35 0 -2 24 -4 53 -4 30 0 56 -2 59 -5 10 -10 -19 -137 -33
-146 -21 -13 -141 -10 -167 5 -43 23 -62 65 -62 137 0 110 34 169 125 217 44
24 60 27 138 25 85 -1 87 -1 93 24 4 16 2 28 -7 34 -21 13 -199 10 -240 -5z"/>
<path d="M2487 1003 c-46 -202 -87 -377 -93 -395 -5 -17 8 -18 174 -18 l179 0
10 35 11 35 -133 0 -133 0 10 43 c6 23 14 59 19 80 l10 37 118 0 c115 0 119 1
125 23 12 47 12 47 -109 47 -131 0 -124 -7 -99 95 l16 65 133 0 133 0 11 31
c6 18 11 34 11 35 0 2 -82 4 -183 4 l-183 0 -27 -117z"/>
<path d="M2961 1028 c-22 -92 -58 -244 -86 -365 -8 -34 -15 -65 -15 -68 0 -3
79 -5 175 -5 l175 0 10 26 c6 14 10 30 10 35 0 5 -56 9 -130 9 -130 0 -130 0
-125 23 18 78 95 431 95 434 0 2 -20 3 -44 3 l-44 0 -21 -92z"/>
</g>
</svg>
