<?xml version="1.0" standalone="no"?>
<!DOCTYPE svg PUBLIC "-//W3C//DTD SVG 20010904//EN"
 "http://www.w3.org/TR/2001/REC-SVG-20010904/DTD/svg10.dtd">
<svg version="1.0" xmlns="http://www.w3.org/2000/svg"
 width="661.000000px" height="183.000000px" viewBox="0 0 661.000000 183.000000"
 preserveAspectRatio="xMidYMid meet">
<metadata>
Created by potrace 1.16, written by Peter Selinger 2001-2019
</metadata>
<g transform="translate(0.000000,183.000000) scale(0.100000,-0.100000)"
fill="#000000" stroke="none">
<path d="M1990 1573 c-63 -10 -182 -61 -249 -107 -126 -86 -219 -212 -268
-361 -21 -66 -26 -100 -27 -195 -1 -100 3 -125 26 -195 38 -112 90 -194 184
-291 65 -67 73 -77 37 -52 -24 18 -49 38 -55 45 -16 20 -32 16 -61 -14 -74
-78 -76 -215 -4 -291 34 -37 104 -68 197 -88 124 -27 595 -28 720 -1 111 24
173 52 210 93 84 96 57 264 -52 320 -30 15 -31 15 -67 -18 -20 -19 -45 -40
-56 -48 -11 -7 3 9 32 36 29 27 77 86 107 132 133 203 154 419 61 636 -78 182
-250 331 -445 385 -70 20 -212 27 -290 14z m263 -28 c32 -8 76 -24 99 -36 51
-26 127 -97 151 -141 17 -32 17 -32 0 -8 -90 123 -239 200 -358 184 -27 -3
-69 -7 -92 -7 -29 -1 -43 -5 -43 -14 0 -8 6 -13 13 -12 60 8 108 -15 50 -24
-16 -2 4 -5 42 -6 188 -4 356 -94 454 -245 63 -96 83 -156 86 -261 3 -67 2
-78 -4 -45 -11 62 -14 44 -15 -90 -1 -105 -4 -121 -30 -178 -42 -90 -110 -149
-185 -158 -45 -5 -64 -14 -99 -44 -58 -52 -104 -72 -177 -78 -86 -6 -165 18
-219 69 -24 21 -49 39 -56 39 -6 0 -37 7 -67 16 -65 19 -134 77 -165 138 -28
56 -35 143 -15 204 15 46 15 53 1 97 -33 96 -5 209 74 297 29 32 32 38 14 29
-22 -12 -23 -11 -17 11 27 85 108 183 186 224 102 53 256 69 372 39z"/>
<path d="M2236 1361 c28 -16 58 -41 67 -55 17 -25 17 -25 -21 -35 -52 -14
-130 -66 -143 -94 -8 -17 -20 -24 -39 -25 -42 -1 -120 -38 -157 -74 -18 -18
-36 -29 -39 -25 -3 3 -9 35 -11 71 -5 51 -2 71 11 91 25 38 80 34 147 -11 l54
-35 -44 40 c-24 23 -62 46 -85 53 -22 6 -45 15 -50 19 -12 10 8 34 58 71 21
15 35 28 29 28 -15 0 -67 -42 -97 -77 -18 -22 -37 -33 -54 -33 -67 -1 -158
-69 -193 -145 -23 -49 -25 -142 -5 -190 13 -31 13 -39 0 -70 -17 -42 -18 -123
-2 -177 24 -79 131 -168 203 -168 20 0 37 -11 62 -39 101 -118 265 -119 378
-2 26 27 48 41 65 41 45 0 128 49 165 97 50 66 64 137 42 222 -15 59 -15 70
-2 106 41 114 -17 249 -129 301 -28 13 -62 24 -75 24 -16 0 -36 14 -59 40 -19
23 -51 50 -73 60 -58 30 -61 24 -3 -9z m-356 -127 c-15 -38 -12 -130 5 -171 8
-19 15 -37 15 -38 0 -1 -22 -5 -49 -9 -48 -6 -138 -56 -148 -83 -10 -26 -20
-12 -31 43 -23 112 25 215 121 260 29 13 62 24 74 24 20 0 21 -3 13 -26z m555
7 c105 -48 157 -166 124 -285 l-11 -38 -31 30 c-38 36 -111 71 -149 72 -33 0
-33 1 -12 60 16 44 15 122 -1 163 -10 23 27 23 80 -2z m-100 -24 c17 -25 20
-103 5 -143 l-11 -27 -22 20 c-12 11 -35 29 -52 39 -23 14 -19 8 15 -24 l44
-43 -70 -34 c-39 -19 -76 -41 -83 -48 -14 -18 -4 -47 15 -47 21 0 86 35 121
64 l30 25 11 -25 c22 -47 25 -98 8 -139 l-16 -38 -28 25 c-63 60 -143 87 -155
53 -8 -20 56 -71 116 -93 l48 -18 -22 -28 c-24 -30 -91 -65 -125 -66 -20 0
-20 4 -16 78 3 57 0 82 -11 96 -35 47 -65 -31 -47 -124 5 -25 9 -48 10 -51 0
-13 -93 12 -121 32 -26 19 -55 57 -47 63 2 1 19 9 38 16 58 22 121 70 118 88
-7 38 -90 15 -150 -42 -15 -14 -29 -26 -31 -26 -15 0 -27 89 -18 129 13 60 23
67 57 38 60 -50 124 -71 140 -45 10 16 -59 74 -105 89 -52 17 -55 23 -27 56
30 35 83 63 120 63 24 0 26 -3 19 -27 -11 -40 -8 -142 5 -155 7 -7 9 8 5 49
-4 41 -2 63 6 68 7 4 15 4 18 1 9 -9 9 -67 0 -100 -7 -26 -6 -28 7 -17 19 16
22 114 6 157 l-11 27 48 -5 c47 -5 47 -5 18 8 -16 7 -36 13 -42 14 -20 0 -15
14 16 44 56 54 137 65 166 23z m-462 -286 c-3 -46 -1 -92 5 -110 8 -23 8 -31
-1 -31 -23 1 -92 37 -111 59 -22 24 -25 73 -7 95 10 11 99 61 118 66 0 0 -1
-36 -4 -79z m589 22 c55 -53 31 -110 -62 -152 -41 -18 -42 -20 -17 -20 32 -1
77 20 129 60 l36 29 11 -31 c39 -112 -22 -239 -132 -275 -29 -9 -57 -19 -64
-21 -9 -4 -10 3 -3 29 14 48 12 114 -5 154 -13 32 -13 42 1 92 16 52 15 133
-2 176 -6 14 -2 14 37 1 24 -9 56 -28 71 -42z m-734 -114 c40 -36 82 -55 132
-62 19 -3 36 -6 37 -6 1 -1 -5 -17 -13 -36 -16 -39 -20 -113 -10 -162 l7 -31
-43 9 c-94 21 -168 107 -171 200 -1 48 10 119 20 119 3 0 21 -14 41 -31z m300
-174 c19 -8 43 -15 53 -15 32 0 21 -19 -28 -50 -90 -58 -163 -29 -163 64 0 22
3 51 6 63 6 21 7 20 51 -13 25 -19 61 -41 81 -49z m312 21 c0 -50 -5 -69 -22
-91 -18 -23 -27 -26 -58 -22 -65 8 -148 77 -94 77 24 0 107 46 133 74 14 14
28 26 33 26 4 0 8 -29 8 -64z m-201 -70 c17 -31 64 -65 120 -86 l44 -17 -29
-19 c-16 -10 -32 -23 -36 -29 -4 -6 -53 -10 -115 -10 -104 0 -109 1 -147 30
l-38 29 43 15 c26 8 60 32 88 61 25 27 49 48 52 49 3 1 11 -10 18 -23z"/>
<path d="M2940 1245 l0 -145 95 0 c88 0 95 1 95 20 0 18 -7 20 -75 20 l-75 0
0 45 0 45 70 0 c63 0 70 2 70 20 0 18 -7 20 -70 20 l-70 0 0 40 0 40 70 0 c63
0 70 2 70 20 0 19 -7 20 -90 20 l-90 0 0 -145z"/>
<path d="M3252 1315 c-18 -8 -30 -10 -27 -5 3 6 -5 10 -19 10 l-26 0 0 -110 0
-110 25 0 c25 0 25 1 25 84 0 83 0 84 30 96 53 22 60 11 60 -90 0 -88 1 -90
24 -90 23 0 23 1 21 95 -2 130 -28 157 -113 120z"/>
<path d="M3444 1296 c-28 -28 -34 -42 -34 -76 0 -58 46 -105 114 -115 52 -8
51 -9 60 22 6 18 4 22 -8 17 -43 -16 -126 24 -126 61 0 12 15 15 76 15 l77 0
-7 33 c-8 41 -48 77 -88 77 -21 0 -40 -10 -64 -34z"/>
<path d="M3905 1325 c-5 -2 -22 -6 -36 -9 -14 -3 -38 -18 -52 -32 -61 -61 -19
-159 72 -171 31 -4 41 -10 39 -22 -4 -21 -45 -41 -85 -41 -26 0 -33 -4 -33
-20 0 -14 7 -20 23 -20 38 0 89 19 114 42 22 20 23 28 23 150 l0 128 -27 -1
c-16 0 -32 -2 -38 -4z"/>
<path d="M4160 1321 c0 -5 -2 -16 -5 -24 -5 -10 1 -13 22 -10 32 5 83 -12 83
-27 0 -5 -18 -13 -40 -16 -55 -9 -90 -38 -90 -74 0 -40 37 -63 111 -68 l59 -4
0 86 c0 100 -7 120 -51 135 -39 13 -89 14 -89 2z"/>
<path d="M5250 1072 c0 -12 -156 -142 -170 -142 -16 0 -11 -23 10 -48 l20 -24
37 31 38 31 3 -245 2 -245 40 0 40 0 0 325 c0 210 -4 325 -10 325 -5 0 -10 -4
-10 -8z"/>
<path d="M2937 1043 c-3 -5 -8 -69 -12 -144 l-7 -137 30 -7 c19 -4 49 0 77 9
25 9 76 16 113 16 121 -1 182 -47 182 -141 0 -35 -6 -47 -35 -74 -79 -76 -232
-68 -337 15 -20 17 -41 30 -45 30 -13 0 -43 -38 -43 -54 0 -21 75 -73 140 -97
74 -28 224 -24 286 9 70 36 124 115 124 182 0 61 -53 146 -110 175 -54 28
-158 38 -232 23 -77 -17 -75 -20 -62 75 l7 47 171 2 171 3 3 38 3 37 -210 0
c-115 0 -212 -3 -214 -7z"/>
<path d="M3627 875 c-58 -30 -57 -30 -57 -5 0 17 -7 20 -40 20 l-40 0 0 -225
0 -225 40 0 40 0 0 170 0 171 53 24 c63 30 101 31 127 5 18 -18 20 -33 20
-195 l0 -175 40 0 40 0 0 173 0 174 42 19 c49 22 121 25 140 6 9 -9 14 -62 16
-192 l3 -180 40 0 39 0 0 175 c0 186 -7 222 -49 259 -12 11 -42 21 -70 24 -41
4 -62 -1 -114 -25 l-63 -30 -32 28 c-42 38 -106 39 -175 4z"/>
<path d="M4308 894 c-10 -3 -18 -14 -18 -24 0 -10 -2 -24 -5 -32 -4 -10 11
-13 67 -13 85 0 131 -16 147 -51 17 -38 15 -41 -46 -47 -84 -9 -145 -33 -182
-71 -64 -66 -46 -152 41 -197 45 -23 199 -38 252 -25 l26 6 0 153 c0 83 -5
168 -10 188 -11 40 -51 83 -93 98 -33 13 -154 22 -179 15z m202 -315 l0 -92
-65 6 c-95 9 -135 34 -135 86 0 30 47 64 108 77 98 21 92 26 92 -77z"/>
<path d="M4790 872 c-48 -24 -83 -78 -76 -117 10 -48 38 -77 114 -119 39 -21
74 -47 77 -57 16 -50 -49 -84 -146 -77 l-59 4 0 -32 c0 -30 3 -34 36 -40 82
-15 197 21 231 73 22 33 23 92 1 125 -9 13 -48 41 -86 61 -86 46 -99 59 -84
92 14 31 79 49 140 40 39 -6 44 -5 38 10 -3 9 -6 25 -6 36 0 17 -8 19 -72 19
-50 0 -84 -6 -108 -18z"/>
</g>
</svg>
