<?xml version="1.0" standalone="no"?>
<!DOCTYPE svg PUBLIC "-//W3C//DTD SVG 20010904//EN"
 "http://www.w3.org/TR/2001/REC-SVG-20010904/DTD/svg10.dtd">
<svg version="1.0" xmlns="http://www.w3.org/2000/svg"
 width="2048.000000px" height="1074.000000px" viewBox="0 0 2048.000000 1074.000000"
 preserveAspectRatio="xMidYMid meet">

<g transform="translate(0.000000,1074.000000) scale(0.100000,-0.100000)"
fill="#000000" stroke="none">
<path d="M5280 7684 c-478 -33 -795 -141 -969 -330 -86 -94 -130 -183 -152
-304 -26 -151 -16 -281 32 -402 77 -196 272 -353 560 -451 195 -67 518 -129
965 -187 328 -41 473 -85 541 -164 39 -43 49 -86 33 -142 -26 -90 -133 -171
-278 -209 -84 -21 -271 -45 -358 -45 -78 0 -319 23 -424 41 -355 60 -738 209
-1027 400 l-33 21 0 -286 0 -286 49 -25 c79 -39 236 -100 376 -144 582 -183
1219 -219 1705 -96 264 67 449 162 590 304 151 151 209 305 197 521 -9 172
-58 292 -166 403 -93 96 -238 182 -386 228 -154 49 -296 78 -560 118 -692 105
-795 126 -905 181 -30 16 -70 44 -89 64 -30 31 -35 44 -39 94 -9 131 84 210
303 258 115 24 537 25 705 0 327 -48 615 -127 829 -227 46 -21 85 -39 87 -39
2 0 4 115 4 255 l0 255 -27 11 c-113 45 -560 136 -803 165 -128 15 -632 27
-760 18z"/>
<path d="M9035 7653 c-261 -8 -847 -67 -982 -98 l-23 -5 0 -490 0 -489 38 -10
c185 -49 575 -111 699 -111 l33 0 2 377 3 378 50 9 c28 5 192 9 365 10 266 1
329 -2 405 -17 263 -52 421 -142 491 -278 40 -78 46 -204 14 -289 -107 -287
-639 -452 -1323 -412 -172 10 -348 30 -497 57 -91 16 -280 57 -325 70 -27 8
-84 24 -125 36 -298 84 -663 241 -914 394 -39 24 -74 41 -78 39 -5 -3 -8 -49
-8 -104 l0 -98 93 -70 c146 -111 286 -198 490 -306 110 -58 393 -175 535 -221
l52 -17 0 -459 0 -459 385 0 385 0 0 374 c0 206 3 377 8 379 4 2 41 0 82 -5
41 -4 192 -10 335 -12 205 -2 294 1 420 15 713 82 1163 349 1292 765 14 46 18
91 17 209 0 137 -3 157 -27 229 -65 186 -210 335 -423 432 -137 62 -391 126
-594 149 -30 4 -68 8 -85 10 -148 19 -508 28 -790 18z"/>
<path d="M1669 7518 c-20 -35 -179 -313 -354 -618 -444 -775 -474 -827 -515
-900 -27 -48 -488 -853 -517 -902 -2 -5 187 -8 420 -8 l425 0 102 190 101 190
882 -2 882 -3 95 -187 95 -188 413 0 413 0 -39 73 c-22 39 -91 169 -155 287
-63 118 -161 301 -217 405 -208 386 -465 863 -518 965 -31 58 -81 150 -111
206 -31 55 -110 203 -176 327 l-120 227 -536 0 -535 0 -35 -62z m982 -1170
l229 -458 -661 0 -660 0 39 73 c22 39 104 191 182 337 78 146 160 299 182 340
22 41 48 89 58 105 10 17 57 104 105 195 49 91 95 175 103 188 15 23 18 18
104 -150 49 -95 193 -379 319 -630z"/>
<path d="M11350 6335 l0 -1245 390 0 390 0 0 1245 0 1245 -390 0 -390 0 0
-1245z"/>
<path d="M12640 6335 l0 -1245 265 0 265 0 2 1024 3 1024 220 -321 c121 -176
259 -377 307 -446 48 -69 117 -171 155 -226 37 -55 142 -208 233 -340 92 -132
203 -294 248 -360 45 -66 117 -172 161 -235 l78 -115 577 -3 576 -2 0 1245 0
1245 -265 0 -265 0 -2 -1031 -3 -1032 -80 117 c-44 64 -152 219 -240 346 -88
126 -221 317 -295 424 -120 174 -188 272 -474 683 -39 57 -132 190 -206 298
l-135 195 -562 0 -563 0 0 -1245z"/>
<path d="M17186 7555 c-9 -13 -16 -26 -16 -29 0 -2 -17 -35 -38 -73 -21 -37
-65 -117 -97 -178 -32 -60 -137 -256 -233 -435 -96 -179 -192 -359 -215 -400
-22 -41 -50 -94 -64 -118 -13 -24 -145 -271 -295 -550 -223 -418 -315 -588
-365 -674 -2 -5 179 -8 404 -7 l408 0 80 166 c44 91 88 177 98 190 l18 23 874
0 875 0 15 -24 c9 -14 56 -98 104 -188 l87 -163 432 -3 c238 -1 432 0 432 2 0
3 -28 53 -63 113 -35 59 -77 133 -94 163 -17 30 -259 453 -538 940 -279 487
-517 903 -529 925 -13 22 -62 109 -110 193 l-88 152 -533 0 -533 0 -16 -25z
m587 -505 c24 -47 56 -105 70 -130 25 -46 412 -764 498 -926 27 -50 49 -94 49
-98 0 -3 -295 -6 -655 -6 -360 0 -655 2 -655 5 0 23 633 1256 640 1248 4 -4
28 -46 53 -93z"/>
<path d="M10157 4114 c-4 -4 -7 -111 -7 -237 l0 -229 -37 32 c-66 58 -116 75
-223 75 -82 0 -103 -4 -150 -26 -61 -29 -120 -84 -155 -144 -52 -90 -70 -253
-40 -368 41 -159 134 -244 289 -266 118 -17 208 11 284 86 23 24 45 43 47 43
3 0 5 -27 5 -60 l0 -60 70 0 70 0 -2 578 -3 577 -70 3 c-39 1 -74 0 -78 -4z
m-181 -489 c93 -27 162 -129 172 -251 9 -118 -48 -232 -140 -278 -67 -33 -119
-33 -186 0 -76 38 -115 104 -136 235 -11 66 36 199 86 246 28 26 105 62 134
63 11 0 43 -7 70 -15z"/>
<path d="M4270 3960 l0 -80 85 0 85 0 0 80 0 80 -85 0 -85 0 0 -80z"/>
<path d="M17070 4038 c-1 -2 -2 -38 -3 -80 l-3 -78 88 0 88 0 0 80 0 80 -85 0
c-47 0 -85 -1 -85 -2z"/>
<path d="M1138 4023 c-17 -4 -18 -38 -18 -534 l0 -529 318 2 317 3 0 65 0 65
-235 5 -235 5 0 170 0 170 213 3 212 2 0 65 0 65 -212 2 -213 3 -3 153 -3 152
231 0 230 0 0 64 c0 49 -4 65 -16 70 -18 7 -560 6 -586 -1z"/>
<path d="M13560 3495 l0 -535 85 0 85 0 -2 533 -3 532 -82 3 -83 3 0 -536z"/>
<path d="M11490 3948 c-36 -11 -69 -24 -74 -28 -5 -5 -8 -47 -7 -94 l2 -86
-95 0 -96 0 0 -60 0 -60 89 0 c86 0 89 -1 95 -25 4 -14 6 -118 6 -233 -1 -239
9 -290 65 -347 43 -42 87 -55 190 -55 123 0 125 2 125 70 l0 57 -73 -5 c-67
-4 -75 -2 -104 22 -45 38 -53 86 -53 315 l0 201 110 0 111 0 -3 58 -3 57 -107
3 -107 3 -3 113 -3 114 -65 -20z"/>
<path d="M2410 3743 c-52 -18 -135 -75 -145 -101 -7 -16 -8 -15 -15 3 -5 11
-9 37 -9 58 l-1 37 -75 0 -74 0 2 -387 2 -388 78 -3 77 -3 0 222 c0 268 10
320 75 385 40 40 114 74 159 74 41 0 94 -21 121 -47 55 -56 59 -75 63 -366 l4
-268 76 3 77 3 3 225 c5 326 -17 433 -101 506 -23 19 -64 41 -91 49 -64 19
-169 18 -226 -2z"/>
<path d="M3397 3750 c-59 -15 -114 -47 -160 -93 -148 -145 -153 -447 -10 -591
106 -106 291 -132 425 -59 28 15 57 38 65 50 28 42 36 27 31 -55 -9 -119 -42
-183 -118 -222 -80 -41 -232 -34 -357 16 -36 14 -66 24 -69 21 -2 -2 -5 -35
-7 -73 l-2 -69 55 -17 c75 -25 233 -38 318 -28 135 17 227 69 278 156 51 86
54 117 54 552 l0 402 -76 0 -77 0 5 -51 5 -50 -36 34 c-59 57 -114 79 -206 83
-44 2 -97 -1 -118 -6z m211 -139 c88 -45 135 -134 135 -251 0 -160 -96 -273
-233 -273 -122 0 -207 95 -218 244 -15 216 152 364 316 280z"/>
<path d="M5135 3746 c-60 -19 -86 -34 -132 -79 l-43 -41 0 41 c0 70 -3 73 -88
73 l-75 0 7 -77 c3 -42 6 -217 6 -390 l0 -313 74 0 74 0 3 243 4 244 30 59
c67 132 235 175 326 85 50 -51 59 -108 59 -383 l0 -249 78 3 77 3 0 275 c0
246 -2 281 -20 335 -26 82 -90 147 -164 169 -64 19 -160 20 -216 2z"/>
<path d="M6098 3741 c-109 -36 -180 -99 -226 -200 -37 -83 -43 -232 -13 -330
37 -123 130 -213 252 -245 98 -25 171 -28 267 -12 138 24 142 27 142 101 0 34
-2 64 -5 67 -3 3 -33 -6 -66 -19 -202 -82 -419 -1 -445 165 l-7 42 279 0 c154
0 285 4 293 9 11 7 13 28 8 102 -10 155 -77 264 -192 314 -62 27 -215 30 -287
6z m235 -123 c49 -27 86 -87 90 -144 l2 -39 -212 -3 c-241 -3 -231 -7 -192 78
31 70 73 107 149 131 39 13 117 2 163 -23z"/>
<path d="M7088 3741 c-110 -35 -169 -89 -222 -201 -29 -61 -31 -72 -31 -180 0
-137 16 -191 83 -276 35 -45 59 -63 120 -92 l77 -37 155 1 c114 0 166 4 195
16 40 15 40 15 43 73 4 79 0 88 -35 70 -126 -63 -292 -57 -390 14 -42 31 -93
117 -93 158 l0 23 288 2 287 3 -1 95 c-2 121 -27 192 -93 260 -37 38 -60 52
-115 69 -85 26 -190 27 -268 2z m187 -102 c79 -22 127 -79 141 -168 l7 -41
-218 0 -217 0 7 33 c9 42 53 115 86 139 31 23 95 47 129 48 14 0 43 -5 65 -11z"/>
<path d="M8174 3736 c-28 -13 -66 -42 -87 -67 l-37 -44 0 42 c0 71 -3 73 -88
73 l-75 0 6 -122 c4 -66 7 -242 7 -390 l0 -268 74 0 74 0 4 233 c4 183 8 241
21 275 41 107 115 157 222 150 l65 -4 0 67 c0 77 -3 79 -83 79 -33 0 -70 -9
-103 -24z"/>
<path d="M8809 3747 c-107 -30 -200 -114 -241 -216 -18 -47 -22 -76 -23 -176
0 -114 2 -123 31 -185 53 -112 107 -161 223 -200 99 -33 293 -27 394 12 26 10
27 13 27 80 0 63 -2 69 -17 63 -107 -45 -121 -48 -213 -49 -87 -1 -100 2 -155
29 -70 35 -108 80 -129 153 l-15 52 280 1 c153 1 285 2 292 3 9 1 12 27 11 96
-2 160 -56 259 -173 314 -56 26 -80 31 -156 33 -52 2 -109 -3 -136 -10z m220
-126 c47 -24 86 -85 95 -148 l6 -43 -216 0 -216 0 7 33 c18 82 81 155 153 176
51 14 123 6 171 -18z"/>
<path d="M12281 3741 c-171 -51 -281 -198 -282 -381 -1 -153 52 -262 168 -341
140 -97 367 -96 509 1 57 40 92 83 128 160 27 58 30 75 31 160 0 146 -37 235
-133 321 -71 64 -144 90 -262 95 -72 3 -110 -1 -159 -15z m208 -117 c61 -18
123 -70 154 -128 15 -30 22 -66 25 -129 5 -103 -11 -158 -64 -217 -106 -117
-307 -101 -395 29 -90 136 -43 356 92 427 69 35 115 40 188 18z"/>
<path d="M14465 3751 c-50 -13 -98 -41 -142 -84 -42 -40 -43 -41 -43 -15 0 14
-3 40 -6 57 l-6 31 -75 0 -75 0 6 -31 c3 -17 6 -193 6 -390 l0 -359 74 0 74 0
5 238 c2 151 8 251 16 276 7 21 32 60 56 85 102 109 256 103 317 -11 22 -41
23 -56 28 -313 l5 -270 75 0 75 0 0 280 c0 248 -2 286 -19 334 -22 63 -74 124
-130 153 -44 23 -186 34 -241 19z"/>
<path d="M15333 3742 c-106 -38 -152 -95 -161 -198 -8 -101 36 -152 214 -243
88 -45 113 -63 128 -91 18 -34 18 -37 2 -72 -11 -22 -31 -43 -51 -52 -47 -23
-148 -20 -224 5 -34 12 -63 20 -65 18 -2 -2 -6 -30 -9 -62 l-6 -59 37 -15 c56
-25 256 -30 319 -9 105 35 162 113 163 221 0 105 -41 150 -207 230 -61 30
-119 64 -127 77 -18 26 -21 70 -6 99 26 48 136 64 239 33 29 -8 54 -14 56 -12
1 2 5 29 7 60 5 56 4 57 -26 68 -17 7 -76 14 -131 16 -80 4 -110 1 -152 -14z"/>
<path d="M16305 3747 c-58 -19 -82 -34 -131 -79 l-44 -41 0 57 0 56 -75 0 -75
0 2 -547 3 -548 54 -3 c30 -2 65 -1 78 3 l23 5 0 213 0 213 48 -45 c62 -59
125 -81 223 -81 111 0 162 21 235 96 84 84 106 142 112 290 8 204 -53 326
-196 392 -68 31 -192 40 -257 19z m130 -118 c62 -17 129 -90 150 -163 22 -76
17 -192 -12 -256 -52 -116 -173 -169 -278 -121 -120 54 -183 214 -140 358 26
89 82 150 163 179 46 16 66 17 117 3z"/>
<path d="M17908 3750 c-47 -14 -99 -51 -128 -92 l-29 -40 -3 59 -3 58 -76 3
-77 3 3 -63 c1 -35 3 -210 3 -390 l2 -328 74 0 74 0 4 228 c5 266 16 310 92
380 49 45 89 57 167 50 l49 -5 0 67 c0 53 -4 69 -16 74 -22 8 -103 6 -136 -4z"/>
<path d="M18510 3745 c-189 -53 -294 -239 -261 -460 33 -221 177 -337 421
-338 115 -1 235 25 251 55 6 11 8 41 4 73 l-7 54 -29 -14 c-88 -46 -248 -55
-337 -20 -57 23 -126 102 -141 161 -7 25 -10 49 -7 52 3 2 134 5 292 6 l287 1
-2 84 c-4 164 -62 271 -177 327 -70 34 -207 43 -294 19z m191 -110 c24 -9 54
-26 68 -38 31 -29 61 -94 61 -134 l0 -33 -210 0 -210 0 0 23 c0 36 49 125 80
147 68 48 139 60 211 35z"/>
<path d="M4280 3350 l0 -390 80 0 80 0 0 390 0 390 -80 0 -80 0 0 -390z"/>
<path d="M17080 3350 l0 -391 75 3 76 3 -1 378 c0 207 0 382 0 387 0 6 -32 10
-75 10 l-75 0 0 -390z"/>
</g>
</svg>
