<?xml version="1.0" standalone="no"?>
<!DOCTYPE svg PUBLIC "-//W3C//DTD SVG 20010904//EN"
 "http://www.w3.org/TR/2001/REC-SVG-20010904/DTD/svg10.dtd">
<svg version="1.0" xmlns="http://www.w3.org/2000/svg"
 width="300.000000px" height="119.000000px" viewBox="0 0 300.000000 119.000000"
 preserveAspectRatio="xMidYMid meet">

<g transform="translate(0.000000,119.000000) scale(0.100000,-0.100000)"
fill="#000000" stroke="none">
<path d="M638 879 c30 -40 65 -199 43 -199 -6 0 -11 6 -11 13 0 21 -47 111
-75 142 l-26 30 25 -40 c29 -44 34 -64 11 -45 -11 9 -9 -2 7 -36 32 -73 30
-141 -6 -189 l-29 -38 32 19 c47 28 110 98 133 151 25 58 26 129 2 174 l-19
34 -3 -45 c-1 -25 -5 -56 -8 -70 -5 -22 -8 -20 -25 26 -11 28 -29 60 -42 70
-13 12 -17 13 -9 3z"/>
<path d="M254 785 c16 -143 116 -264 219 -265 40 0 33 14 -23 50 -28 18 -49
34 -48 36 2 1 23 -1 46 -7 27 -6 55 -6 75 0 l32 9 -38 1 c-39 1 -144 34 -160
50 -5 5 25 7 75 4 46 -3 94 0 108 5 22 10 20 11 -25 12 -39 2 -44 4 -25 9 19
6 8 9 -42 13 -91 8 -138 32 -165 87 -32 63 -37 63 -29 -4z"/>
<path d="M835 628 c-2 -7 -7 -80 -10 -163 -4 -82 -8 -161 -9 -175 -1 -22 4
-25 37 -28 24 -2 39 1 41 10 3 7 7 93 10 191 l7 177 -36 0 c-20 0 -37 -6 -40
-12z"/>
<path d="M1530 596 l0 -44 -70 -4 c-65 -3 -73 -6 -107 -41 -33 -33 -37 -42
-41 -100 -4 -70 12 -118 47 -137 34 -18 106 -12 135 11 l26 20 0 -20 c0 -17 6
-21 29 -21 17 0 32 3 34 8 3 4 8 89 12 190 l7 182 -36 0 c-36 0 -36 0 -36 -44z
m-6 -114 c2 -4 1 -36 -3 -71 -9 -72 -25 -91 -78 -91 -66 0 -85 98 -28 148 26
22 98 32 109 14z"/>
<path d="M1966 523 c-4 -65 -9 -151 -12 -190 l-6 -73 36 0 c21 0 38 6 40 12 3
7 7 93 10 191 l6 177 -34 0 -34 0 -6 -117z"/>
<path d="M1087 541 c-29 -15 -37 -16 -37 -5 0 9 -12 14 -35 14 -34 0 -35 -1
-35 -38 0 -22 -3 -87 -7 -145 l-6 -107 36 0 37 0 0 61 c0 120 30 179 90 179
44 0 50 -16 50 -132 l0 -108 34 0 33 0 5 107 c6 134 1 153 -43 175 -44 23 -76
23 -122 -1z"/>
<path d="M1746 550 c-59 -18 -96 -76 -96 -151 0 -90 50 -139 142 -139 62 0 74
6 83 41 6 26 6 26 -44 21 -61 -6 -101 15 -101 53 0 24 2 24 88 27 86 3 87 3
90 29 5 46 -23 98 -62 114 -39 17 -57 17 -100 5z m83 -69 c14 -26 5 -31 -51
-31 -52 0 -56 4 -31 32 21 24 69 24 82 -1z"/>
<path d="M2157 550 c-20 -4 -40 -10 -44 -14 -4 -4 -11 -86 -15 -183 -4 -97 -9
-182 -12 -189 -4 -10 5 -14 34 -14 l40 0 0 66 c0 59 2 65 18 58 9 -4 40 -9 68
-12 46 -3 55 -1 88 28 42 37 61 94 51 156 -13 90 -99 129 -228 104z m127 -71
c53 -42 22 -159 -43 -159 -48 0 -64 21 -69 90 -4 53 -2 66 14 77 26 19 68 16
98 -8z"/>
<path d="M2505 552 c-23 -6 -31 -14 -36 -40 -3 -17 -6 -32 -5 -32 0 0 19 7 41
15 52 19 70 18 90 -1 22 -22 6 -39 -58 -60 -68 -21 -96 -40 -107 -69 -11 -30
5 -82 30 -95 30 -16 97 -12 104 6 9 25 7 46 -5 39 -20 -13 -59 4 -59 26 0 14
13 25 46 39 25 11 49 20 53 20 4 0 5 -31 3 -70 l-4 -70 35 0 c32 0 35 3 41 37
3 21 6 79 6 129 0 79 -3 93 -20 109 -22 20 -103 29 -155 17z"/>
</g>
</svg>
