<?xml version="1.0" standalone="no"?>
<!DOCTYPE svg PUBLIC "-//W3C//DTD SVG 20010904//EN"
 "http://www.w3.org/TR/2001/REC-SVG-20010904/DTD/svg10.dtd">
<svg version="1.0" xmlns="http://www.w3.org/2000/svg"
 width="305.000000px" height="245.000000px" viewBox="0 0 305.000000 245.000000"
 preserveAspectRatio="xMidYMid meet">

<g transform="translate(0.000000,245.000000) scale(0.100000,-0.100000)"
fill="#000000" stroke="none">
<path d="M0 1225 l0 -1225 1525 0 1525 0 0 1225 0 1225 -1525 0 -1525 0 0
-1225z m1634 900 c94 -25 194 -83 266 -155 l65 -64 -64 -13 c-36 -7 -66 -15
-69 -17 -2 -3 -27 14 -56 36 -184 147 -437 135 -600 -28 -257 -257 -115 -692
247 -754 119 -21 239 11 347 93 30 23 60 40 65 38 6 -1 36 -8 67 -15 l57 -12
-40 -46 c-54 -64 -159 -131 -251 -162 -93 -32 -241 -36 -329 -10 -196 58 -354
218 -404 410 -19 75 -19 213 0 288 50 193 215 359 406 410 72 20 220 20 293 1z
m398 -317 c22 -6 62 -31 88 -55 179 -161 50 -452 -191 -430 -99 9 -196 84
-214 168 l-7 29 -299 0 -299 0 0 50 0 50 299 0 299 0 6 27 c17 66 93 142 164
163 41 12 110 12 154 -2z m-1182 -238 l0 -50 -68 0 c-75 0 -92 10 -92 52 0 36
22 47 98 48 l62 0 0 -50z m-322 -762 c108 -72 108 -254 1 -325 -110 -72 -259
-20 -295 104 -29 98 12 193 101 235 57 27 140 20 193 -14z m2140 0 c108 -72
108 -254 1 -325 -110 -72 -259 -20 -295 104 -29 98 12 193 101 235 57 27 140
20 193 -14z m-1758 7 c0 -12 -17 -15 -90 -15 l-90 0 0 -65 0 -65 85 0 c69 0
85 -3 85 -15 0 -12 -16 -15 -85 -15 l-85 0 0 -90 c0 -83 -1 -90 -20 -90 -19 0
-20 7 -20 185 l0 185 110 0 c91 0 110 -3 110 -15z m330 0 c0 -12 -14 -15 -65
-15 l-65 0 0 -170 c0 -163 -1 -170 -20 -170 -19 0 -20 7 -20 170 l0 170 -60 0
c-47 0 -60 3 -60 15 0 13 23 15 145 15 122 0 145 -2 145 -15z m275 -152 c39
-91 73 -175 77 -185 6 -16 4 -19 -13 -16 -15 2 -27 17 -39 48 l-18 45 -99 3
-99 3 -21 -51 c-14 -32 -27 -50 -38 -50 -21 0 -24 -11 68 202 58 136 76 167
92 168 16 0 32 -30 90 -167z m175 -3 l0 -170 85 0 c69 0 85 -3 85 -15 0 -12
-18 -15 -105 -15 l-105 0 0 185 c0 178 1 185 20 185 19 0 20 -7 20 -170z m340
28 c34 -79 66 -147 70 -151 4 -5 36 58 72 140 59 133 68 148 92 151 l26 3 0
-185 c0 -179 -1 -186 -20 -186 -18 0 -20 8 -22 152 l-3 153 -65 -149 c-36 -82
-70 -151 -75 -153 -6 -2 -42 70 -82 159 l-72 163 -1 -162 c0 -156 -1 -163 -20
-163 -19 0 -20 7 -20 185 l0 185 29 0 c27 0 32 -6 91 -142z m-1062 -342 l24
-24 -22 -7 c-12 -4 -27 -2 -33 4 -18 18 -65 13 -87 -9 -24 -24 -25 -48 -4 -78
17 -24 71 -31 91 -11 6 6 21 8 34 4 23 -8 23 -8 -9 -36 -46 -42 -93 -40 -138
5 -27 27 -34 42 -34 74 0 43 28 87 64 103 33 14 87 2 114 -25z m1169 9 c13 -9
23 -20 23 -25 0 -14 -41 -23 -53 -11 -16 16 -58 13 -79 -6 -22 -20 -24 -66 -2
-87 18 -18 56 -21 84 -6 20 11 50 4 50 -11 0 -14 -62 -49 -88 -49 -36 0 -80
27 -97 60 -53 102 63 199 162 135z m-1005 -62 l3 -78 48 -3 c39 -3 47 -6 47
-23 0 -17 -7 -19 -70 -19 l-70 0 0 100 c0 93 1 100 20 100 17 0 19 -8 22 -77z
m248 -23 c0 -93 -1 -100 -20 -100 -19 0 -20 7 -20 100 0 93 1 100 20 100 19 0
20 -7 20 -100z m205 50 c16 -27 33 -50 37 -50 4 0 8 23 8 50 0 43 3 50 20 50
19 0 20 -7 20 -100 0 -97 -1 -100 -22 -100 -17 0 -31 14 -53 50 -16 28 -33 50
-37 50 -4 0 -8 -22 -8 -50 0 -43 -3 -50 -20 -50 -19 0 -20 7 -20 100 0 98 1
100 23 100 17 0 30 -13 52 -50z m255 -50 c0 -93 -1 -100 -20 -100 -19 0 -20 7
-20 100 0 93 1 100 20 100 19 0 20 -7 20 -100z"/>
<path d="M364 799 c-107 -31 -137 -200 -49 -277 50 -44 110 -51 172 -21 57 29
83 74 83 144 0 69 -26 115 -80 143 -47 23 -75 26 -126 11z"/>
<path d="M2504 799 c-107 -31 -137 -200 -49 -277 50 -44 110 -51 172 -21 57
29 83 74 83 144 0 69 -26 115 -80 143 -47 23 -75 26 -126 11z"/>
<path d="M1386 703 c-21 -48 -40 -94 -43 -100 -4 -10 15 -13 76 -13 45 0 81 4
81 9 0 5 -17 50 -38 101 l-38 91 -38 -88z"/>
</g>
</svg>
