<?xml version="1.0" standalone="no"?>
<!DOCTYPE svg PUBLIC "-//W3C//DTD SVG 20010904//EN"
 "http://www.w3.org/TR/2001/REC-SVG-20010904/DTD/svg10.dtd">
<svg version="1.0" xmlns="http://www.w3.org/2000/svg"
 width="1936.000000px" height="905.000000px" viewBox="0 0 1936.000000 905.000000"
 preserveAspectRatio="xMidYMid meet">

<g transform="translate(0.000000,905.000000) scale(0.100000,-0.100000)"
fill="#000000" stroke="none">
<path d="M0 4525 l0 -4525 9680 0 9680 0 0 4525 0 4525 -9680 0 -9680 0 0
-4525z m2905 3375 c764 -55 1182 -286 1301 -720 14 -51 18 -101 17 -225 -1
-203 -15 -262 -105 -440 -123 -242 -411 -488 -706 -601 -49 -19 -71 -32 -68
-41 10 -25 200 -297 326 -468 69 -93 140 -190 158 -215 257 -365 508 -600 812
-764 84 -45 92 -52 84 -81 -18 -59 -155 -139 -339 -198 -151 -48 -251 -61
-426 -54 -331 12 -478 101 -800 487 -66 79 -285 373 -384 515 -50 71 -240 355
-274 410 -188 298 -206 332 -222 405 -16 77 -3 90 130 135 308 102 556 279
668 476 55 96 68 156 67 304 -1 116 -4 151 -23 206 -57 172 -170 268 -383 330
-92 26 -266 36 -367 20 -113 -18 -218 -71 -258 -130 -17 -25 -18 -107 -23
-1533 -6 -1502 -6 -1508 -26 -1535 -13 -17 -39 -33 -65 -40 -60 -18 -381 -33
-696 -33 l-262 0 5 98 c3 53 7 106 10 117 3 11 9 766 14 1678 7 1180 13 1665
21 1680 38 74 107 107 274 131 150 22 555 62 755 76 91 6 181 12 200 14 86 7
458 5 585 -4z m5563 -685 c122 -29 188 -77 231 -168 16 -34 45 -97 65 -139 20
-43 52 -112 71 -153 19 -41 35 -77 35 -80 0 -4 11 -30 24 -58 13 -29 34 -74
46 -102 12 -27 34 -75 47 -105 14 -30 34 -77 45 -105 11 -27 32 -77 48 -110
15 -33 40 -89 55 -125 15 -36 40 -93 56 -128 16 -35 29 -65 29 -67 0 -2 21
-53 46 -112 59 -139 67 -158 93 -215 11 -26 21 -50 21 -53 0 -2 11 -29 25 -59
14 -30 30 -67 35 -82 9 -24 13 -26 25 -13 17 17 110 204 154 309 17 41 38 88
46 103 8 16 15 35 15 43 0 8 4 22 9 32 8 16 13 27 40 95 12 29 62 181 91 277
13 41 26 84 30 95 4 11 13 38 19 60 6 22 18 65 27 95 33 115 65 240 79 310 4
19 10 44 15 55 4 11 13 45 19 75 12 55 20 89 40 165 5 22 16 64 23 93 6 29 21
62 32 74 18 20 26 21 138 15 268 -15 604 -66 686 -104 116 -54 118 -101 21
-463 -35 -128 -36 -134 -51 -180 -8 -25 -21 -65 -28 -90 -7 -25 -16 -54 -20
-65 -5 -11 -14 -38 -20 -60 -23 -77 -112 -323 -145 -400 -7 -16 -25 -61 -40
-100 -28 -73 -38 -97 -75 -180 -12 -27 -29 -66 -38 -85 -44 -102 -83 -183
-168 -355 -52 -104 -105 -208 -118 -230 -12 -22 -42 -76 -66 -120 -24 -44 -56
-99 -72 -122 -15 -23 -28 -44 -28 -47 0 -5 -113 -188 -157 -256 -13 -19 -28
-42 -33 -50 -31 -47 -135 -196 -140 -200 -3 -3 -21 -27 -40 -55 -44 -65 -213
-277 -303 -380 -91 -104 -354 -366 -435 -433 -198 -163 -366 -242 -518 -242
-183 0 -438 90 -598 210 -77 59 -96 84 -96 125 0 37 25 63 160 162 245 180
477 390 740 669 165 176 189 211 197 288 6 54 -7 151 -28 211 -6 17 -14 39
-18 50 -4 11 -119 243 -255 515 -233 466 -401 799 -735 1451 -160 315 -163
325 -104 384 65 65 185 112 358 140 106 17 298 12 393 -10z m-1936 -9 c383
-62 673 -197 910 -425 146 -139 228 -257 311 -444 56 -127 82 -220 117 -422
14 -79 8 -393 -9 -485 -35 -194 -67 -292 -154 -470 -17 -36 -34 -67 -37 -70
-3 -3 -18 -26 -32 -51 -110 -190 -359 -411 -598 -529 -261 -130 -536 -189
-881 -190 -445 0 -807 98 -1109 302 -110 73 -254 211 -333 318 -67 91 -158
268 -188 365 -6 22 -15 49 -20 60 -4 11 -10 36 -14 55 -4 19 -11 53 -16 75
-18 82 -39 273 -39 356 0 112 23 301 50 409 33 134 45 167 112 309 218 461
671 772 1223 840 50 6 101 13 115 15 59 10 500 -3 592 -18z m6748 -1 c184 -26
294 -55 440 -118 95 -40 207 -107 266 -159 l31 -27 -12 -67 c-28 -148 -147
-316 -247 -350 -63 -20 -120 -15 -220 22 -303 110 -396 129 -628 128 -135 -1
-179 -5 -242 -22 -105 -29 -217 -82 -297 -141 -67 -50 -171 -160 -171 -180 0
-6 -4 -11 -10 -11 -5 0 -10 -6 -10 -14 0 -8 -4 -16 -8 -18 -22 -9 -80 -159
-121 -314 -37 -140 -16 -452 39 -589 61 -149 116 -234 225 -342 185 -183 452
-294 765 -318 161 -12 500 25 680 75 102 29 166 36 185 20 33 -27 13 -106 -67
-265 -66 -131 -163 -237 -258 -281 -126 -59 -340 -118 -540 -149 -145 -22
-502 -31 -638 -16 -224 26 -422 80 -595 164 -229 110 -386 236 -516 413 -28
38 -55 74 -60 80 -11 13 -103 195 -124 244 -33 79 -69 217 -88 335 -17 109
-22 393 -9 485 27 185 70 330 142 479 195 405 541 697 1003 845 325 104 745
140 1085 91z m2785 -33 c377 -67 645 -196 890 -429 219 -208 372 -520 415
-846 13 -103 13 -375 -1 -451 -6 -34 -15 -86 -20 -116 -10 -52 -39 -161 -62
-225 -28 -80 -114 -247 -170 -329 -103 -152 -283 -324 -442 -424 -140 -87
-374 -179 -555 -218 -197 -41 -507 -56 -718 -34 -625 67 -1090 361 -1309 828
-71 152 -117 315 -134 472 -5 47 -12 112 -15 146 -14 136 37 511 85 619 5 11
19 47 32 80 117 311 377 599 685 758 161 83 395 154 579 176 50 6 101 13 115
15 14 3 135 3 270 1 184 -3 272 -9 355 -23z m1985 -85 c78 -28 156 -82 195
-136 19 -25 39 -51 43 -57 19 -22 50 -122 56 -179 13 -133 -28 -258 -119 -353
-89 -96 -199 -142 -333 -142 -239 0 -419 150 -462 382 -37 203 100 423 305
488 100 32 221 31 315 -3z m-1830 -4021 c510 -53 816 -120 1200 -263 129 -48
135 -57 30 -49 -326 24 -462 28 -755 22 -176 -3 -376 -10 -445 -16 -973 -79
-1957 -250 -3705 -644 -110 -24 -290 -65 -400 -90 -110 -24 -238 -54 -285 -65
-88 -22 -1034 -239 -1150 -265 -36 -7 -237 -52 -447 -100 -329 -74 -571 -126
-1113 -241 -412 -88 -1161 -228 -1575 -295 -552 -89 -979 -145 -1530 -200
-546 -54 -1324 -76 -1795 -50 -1248 68 -2171 350 -2887 881 -200 148 -457 395
-592 567 -18 24 -31 45 -28 48 3 3 99 -41 214 -99 819 -412 1667 -638 2753
-732 584 -50 1352 -44 2075 15 1108 92 2302 289 4095 675 168 36 358 77 423
91 65 13 272 58 460 99 188 42 502 109 697 150 195 42 375 80 399 86 197 46
1186 235 1481 283 295 47 364 58 559 86 371 52 783 94 1171 120 217 14 968 5
1150 -14z"/>
<path d="M6035 6684 c-181 -38 -300 -108 -412 -243 -178 -214 -258 -577 -208
-947 28 -213 76 -349 176 -499 105 -158 280 -282 455 -320 115 -26 293 -17
394 20 248 91 404 306 469 645 33 174 39 340 16 510 -18 131 -27 176 -61 290
-16 54 -94 199 -139 258 -104 138 -270 246 -427 277 -71 14 -215 19 -263 9z"/>
<path d="M15510 6654 c-8 -3 -44 -14 -80 -26 -183 -59 -344 -216 -425 -415
-15 -37 -31 -77 -36 -88 -33 -75 -69 -304 -69 -435 0 -231 53 -472 142 -640
133 -252 353 -401 617 -417 383 -23 641 197 742 632 35 148 48 404 30 550 -12
90 -45 241 -62 283 -5 12 -13 32 -18 45 -49 126 -110 219 -210 317 -93 91
-148 126 -263 167 -62 21 -94 26 -213 29 -77 2 -147 1 -155 -2z"/>
<path d="M17795 7007 c-22 -8 -51 -19 -65 -26 -46 -24 -121 -106 -148 -161
-23 -49 -26 -67 -26 -155 1 -114 11 -144 74 -223 126 -160 381 -169 506 -17
59 73 84 144 84 241 0 72 -4 94 -29 148 -38 84 -81 130 -158 168 -73 36 -173
46 -238 25z m222 -130 c50 -26 67 -53 67 -107 0 -52 -25 -93 -66 -105 -16 -6
-15 -9 11 -30 18 -16 33 -42 40 -72 7 -27 17 -63 22 -80 6 -18 7 -37 4 -43 -7
-11 -85 -13 -101 -2 -12 8 -30 54 -39 100 -10 48 -40 72 -91 72 l-43 0 -3 -87
-3 -88 -50 0 -50 0 0 225 0 225 55 7 c82 9 215 1 247 -15z"/>
<path d="M17837 6813 c-15 -4 -17 -14 -15 -61 l3 -57 43 -3 c59 -4 92 18 92
62 0 18 -6 38 -13 44 -15 13 -85 23 -110 15z"/>
</g>
</svg>
