<?xml version="1.0" standalone="no"?>
<!DOCTYPE svg PUBLIC "-//W3C//DTD SVG 20010904//EN"
 "http://www.w3.org/TR/2001/REC-SVG-20010904/DTD/svg10.dtd">
<svg version="1.0" xmlns="http://www.w3.org/2000/svg"
 width="400.000000px" height="200.000000px" viewBox="0 0 200.000000 200.000000"
 preserveAspectRatio="xMidYMid meet">

<g transform="translate(0.000000,200.000000) scale(0.100000,-0.100000)"
fill="#000000" stroke="none">
<path d="M1031 1266 c-15 -17 1 -56 23 -56 23 0 41 30 29 48 -14 23 -37 26
-52 8z"/>
<path d="M100 1115 l0 -155 25 0 c24 0 24 1 27 107 l3 106 43 -54 c24 -30 61
-78 83 -106 29 -38 48 -53 65 -53 l24 0 0 155 0 155 -25 0 -25 0 0 -107 -1
-108 -27 31 c-15 17 -55 65 -90 107 -39 49 -70 77 -82 77 -19 0 -20 -7 -20
-155z"/>
<path d="M464 1170 c-63 -25 -76 -131 -23 -181 59 -55 160 -31 180 44 26 99
-61 176 -157 137z m94 -43 c6 -5 12 -28 12 -51 0 -46 -14 -71 -46 -80 -32 -10
-55 15 -61 66 -4 37 -1 50 15 66 21 21 53 20 80 -1z"/>
<path d="M676 1173 c-3 -4 -6 -53 -6 -110 l0 -103 25 0 c25 0 25 1 25 85 0 83
0 85 27 91 39 10 53 -16 53 -103 0 -71 1 -73 25 -73 23 0 24 2 27 81 2 65 7
84 21 93 12 8 22 8 35 0 13 -9 18 -28 20 -93 3 -79 4 -81 27 -81 25 0 25 1 25
88 -1 98 -10 119 -59 128 -24 5 -39 1 -61 -14 -28 -21 -28 -21 -45 -1 -21 23
-40 24 -77 5 -16 -8 -28 -11 -28 -6 0 10 -26 20 -34 13z"/>
<path d="M1030 1071 l0 -111 30 0 31 0 -3 108 -3 107 -27 3 -28 3 0 -110z"/>
</g>
</svg>
